<svg width="41" height="41" viewBox="0 0 41 41" fill="none" xmlns="http://www.w3.org/2000/svg">
<path d="M36.7552 28.815V33.7621C36.757 34.2214 36.6629 34.676 36.479 35.0968C36.295 35.5176 36.0251 35.8953 35.6867 36.2058C35.3483 36.5163 34.9488 36.7526 34.5137 36.8998C34.0786 37.0469 33.6177 37.1016 33.1603 37.0602C28.0859 36.5088 23.2116 34.7749 18.9291 31.9977C14.9448 29.4659 11.5667 26.0878 9.0349 22.1035C6.248 17.8015 4.51365 12.9035 3.97237 7.80636C3.93116 7.35035 3.98536 6.89076 4.1315 6.45684C4.27765 6.02292 4.51254 5.62418 4.82124 5.28602C5.12993 4.94785 5.50565 4.67767 5.92448 4.49267C6.34331 4.30767 6.79608 4.2119 7.25395 4.21147H12.201C13.0013 4.20359 13.7772 4.48699 14.384 5.00883C14.9908 5.53068 15.3871 6.25536 15.4991 7.04781C15.7079 8.63099 16.0952 10.1855 16.6534 11.6816C16.8753 12.2718 16.9233 12.9133 16.7918 13.53C16.6603 14.1466 16.3547 14.7127 15.9114 15.1611L13.8171 17.2553C16.1646 21.3838 19.5829 24.802 23.7113 27.1495L25.8056 25.0553C26.2539 24.6119 26.82 24.3063 27.4367 24.1748C28.0533 24.0433 28.6948 24.0913 29.285 24.3132C30.7812 24.8715 32.3356 25.2587 33.9188 25.4675C34.7199 25.5805 35.4514 25.984 35.9744 26.6012C36.4973 27.2184 36.7752 28.0063 36.7552 28.815Z" stroke="#564FFD" stroke-width="3.29807" stroke-linecap="round" stroke-linejoin="round"/>
</svg>
