<svg width="39" height="40" viewBox="0 0 39 40" fill="none" xmlns="http://www.w3.org/2000/svg">
<g clip-path="url(#clip0_1992_4317)">
<path d="M19.5898 2.36942V37.5713" stroke="#0187CB" stroke-width="3.20017" stroke-linecap="round" stroke-linejoin="round"/>
<path d="M27.5902 8.76971H15.5896C14.1043 8.76971 12.6798 9.35974 11.6295 10.41C10.5793 11.4603 9.98926 12.8847 9.98926 14.37C9.98926 15.8553 10.5793 17.2798 11.6295 18.33C12.6798 19.3803 14.1043 19.9703 15.5896 19.9703H23.59C25.0753 19.9703 26.4997 20.5603 27.55 21.6106C28.6003 22.6609 29.1903 24.0853 29.1903 25.5706C29.1903 27.0559 28.6003 28.4804 27.55 29.5306C26.4997 30.5809 25.0753 31.1709 23.59 31.1709H9.98926" stroke="#0187CB" stroke-width="3.20017" stroke-linecap="round" stroke-linejoin="round"/>
</g>
<defs>
<clipPath id="clip0_1992_4317">
<rect width="38.402" height="38.402" fill="white" transform="translate(0.389648 0.769287)"/>
</clipPath>
</defs>
</svg>
