<svg width="26" height="26" viewBox="0 0 26 26" fill="none" xmlns="http://www.w3.org/2000/svg">
<g clip-path="url(#clip0_1832_1333)">
<path d="M8.99848 1.40702C6.52498 2.2651 4.39185 3.89376 2.91239 6.05377C1.43293 8.21379 0.685135 10.7913 0.778841 13.4077C0.872548 16.0242 1.80282 18.5416 3.43301 20.5902C5.0632 22.6389 7.30738 24.1108 9.83592 24.7897C11.8859 25.3187 14.0336 25.3419 16.0945 24.8574C17.9615 24.438 19.6876 23.541 21.1037 22.2542C22.5776 20.8739 23.6474 19.1181 24.1982 17.1753C24.7966 15.0627 24.9031 12.841 24.5096 10.6808H12.9981V15.456H19.6648C19.5315 16.2176 19.246 16.9445 18.8253 17.5932C18.4046 18.2418 17.8573 18.799 17.2163 19.2312C16.4023 19.7699 15.4846 20.1323 14.5221 20.295C13.5569 20.4745 12.5669 20.4745 11.6017 20.295C10.6234 20.0929 9.69791 19.6891 8.88437 19.1094C7.57724 18.1841 6.59576 16.8696 6.08 15.3535C5.55565 13.8089 5.55565 12.1345 6.08 10.5899C6.44713 9.50724 7.05405 8.5215 7.85545 7.70622C8.77256 6.75612 9.93365 6.07697 11.2113 5.74331C12.489 5.40965 13.8339 5.43435 15.0985 5.81472C16.0864 6.11783 16.9898 6.64768 17.7365 7.36196C18.4882 6.61413 19.2386 5.86436 19.9878 5.11266C20.3746 4.70844 20.7962 4.32357 21.1772 3.90968C20.0371 2.84889 18.699 2.02341 17.2395 1.48051C14.5815 0.515402 11.6732 0.489465 8.99848 1.40702Z" fill="white"/>
<path d="M8.99856 1.40701C11.6731 0.488835 14.5814 0.514089 17.2395 1.47857C18.6994 2.02516 20.0369 2.85461 21.1753 3.91935C20.7885 4.33323 20.3804 4.72004 19.9859 5.12233C19.2355 5.87145 18.4857 6.61799 17.7366 7.36196C16.9898 6.64767 16.0865 6.11783 15.0986 5.81472C13.8344 5.43301 12.4896 5.40688 11.2115 5.73918C9.93351 6.07148 8.77171 6.74937 7.8536 7.69848C7.05219 8.51375 6.44527 9.4995 6.07814 10.5822L2.06885 7.478C3.50393 4.63216 5.98868 2.45532 8.99856 1.40701Z" fill="#E33629"/>
<path d="M1.00495 10.5531C1.22029 9.4851 1.57806 8.45081 2.06868 7.478L6.07797 10.5899C5.55363 12.1345 5.55363 13.8089 6.07797 15.3535C4.74219 16.3849 3.40576 17.4216 2.06868 18.4634C0.840851 16.0194 0.466383 13.2347 1.00495 10.5531Z" fill="#F8BD00"/>
<path d="M12.9982 10.6789H24.5096C24.9032 12.8391 24.7967 15.0608 24.1983 17.1734C23.6475 19.1161 22.5777 20.872 21.1038 22.2522C19.8099 21.2427 18.5102 20.2408 17.2163 19.2312C17.8578 18.7986 18.4053 18.2408 18.8261 17.5914C19.2468 16.942 19.5321 16.2144 19.6648 15.4521H12.9982C12.9962 13.8623 12.9982 12.2706 12.9982 10.6789Z" fill="#587DBD"/>
<path d="M2.06689 18.4634C3.40397 17.4319 4.7404 16.3953 6.07618 15.3535C6.59298 16.8701 7.57586 18.1847 8.88443 19.1094C9.7005 19.6864 10.628 20.0869 11.6076 20.2853C12.5728 20.4648 13.5628 20.4648 14.528 20.2853C15.4904 20.1226 16.4081 19.7603 17.2221 19.2216C18.516 20.2311 19.8157 21.233 21.1096 22.2425C19.6936 23.5301 17.9675 24.4278 16.1004 24.8477C14.0395 25.3322 11.8917 25.309 9.84178 24.78C8.22047 24.3471 6.70606 23.584 5.39346 22.5385C4.00429 21.4353 2.86959 20.0453 2.06689 18.4634Z" fill="#319F43"/>
</g>
<defs>
<clipPath id="clip0_1832_1333">
<rect width="24.7559" height="24.7559" fill="white" transform="translate(0.374512 0.592773)"/>
</clipPath>
</defs>
</svg>
