<svg width="35" height="36" viewBox="0 0 35 36" fill="none" xmlns="http://www.w3.org/2000/svg">
<path fill-rule="evenodd" clip-rule="evenodd" d="M35.0088 32.7603C35.0088 33.5446 34.7017 34.2968 34.155 34.8514C33.6083 35.406 32.8668 35.7176 32.0937 35.7176H2.91347C2.53039 35.718 2.15097 35.6418 1.79692 35.4934C1.44287 35.345 1.12112 35.1272 0.850084 34.8526C0.579046 34.5779 0.36403 34.2518 0.217328 33.8928C0.0706266 33.5337 -0.00488306 33.1489 -0.00488281 32.7603V3.15846C-0.00488306 2.76982 0.0706266 2.385 0.217328 2.02598C0.36403 1.66697 0.579046 1.34081 0.850084 1.06616C1.12112 0.791501 1.44287 0.573739 1.79692 0.425319C2.15097 0.276899 2.53039 0.200732 2.91347 0.201174H32.0917C32.8649 0.201174 33.6063 0.512745 34.153 1.06734C34.6997 1.62194 35.0068 2.37414 35.0068 3.15846L35.0088 32.7603Z" fill="#EDAA00"/>
<path d="M19.5444 18.3438V11.9836L21.1815 11.5904V12.4232C21.1815 12.4232 21.6048 11.327 22.588 11.0722C22.8908 10.995 23.0431 11.0413 23.0431 11.0413V12.6638C22.7485 12.6679 22.4575 12.7295 22.1859 12.8453C21.579 13.0879 21.2742 13.6189 21.2742 14.4254V17.9372L19.5444 18.3438ZM10.9179 20.4119C10.9179 20.4119 10.6529 20.0086 10.6529 18.5757V15.4094L9.81017 15.611V14.3078L10.6535 14.1062V12.684L12.394 12.2673V13.6861L13.6236 13.3904V14.6943L12.394 14.9907V18.2168C12.394 19.6827 12.7776 19.9643 12.7776 19.9643L10.9179 20.4119ZM13.8051 16.6286C13.8051 15.4974 13.9641 14.6727 14.3046 14.0396C14.7094 13.2882 15.3753 12.7989 16.3438 12.5751C18.2525 12.1349 18.9409 13.2815 18.9137 14.8179C18.9051 15.367 18.9071 15.6352 18.9071 15.6352L15.5442 16.437V16.4922C15.5442 17.5675 15.7668 18.0763 16.4373 17.9311C17.0163 17.8075 17.1773 17.4392 17.223 16.9848C17.2309 16.9102 17.2336 16.724 17.2336 16.724L18.8097 16.3409C18.8097 16.3409 18.8137 16.472 18.8097 16.6178C18.7951 17.2288 18.6202 18.7437 16.4306 19.268C14.357 19.7674 13.8031 18.4823 13.8031 16.6286H13.8051ZM16.4114 13.7593C15.8542 13.8877 15.5621 14.4422 15.5502 15.361L17.2422 14.9523C17.2455 14.9107 17.2455 14.8179 17.2455 14.6754C17.2422 13.9825 17.0309 13.6169 16.4121 13.7593H16.4114ZM28.9302 12.9091C28.864 10.9721 29.3595 9.43431 31.4895 8.94367C32.849 8.63047 33.3637 8.98803 33.6248 9.33417C33.8758 9.66484 33.9726 10.1105 33.9726 10.7348V10.8504L32.3044 11.2537V11.0178C32.3044 10.2785 32.1056 9.9962 31.5756 10.1306C30.9456 10.2913 30.6912 10.8975 30.6912 12.1046V12.6672C30.6912 13.8938 30.8568 14.4557 31.5822 14.3011C32.2129 14.1666 32.2991 13.6075 32.311 13.1155C32.311 13.0382 32.3156 12.7908 32.3156 12.7908L33.9812 12.3929V12.6557C33.9765 14.2634 33.1411 15.277 31.5749 15.6466C29.4198 16.1601 28.9971 14.8945 28.9309 12.9091H28.9302ZM23.1684 15.6204C23.1684 14.1472 24.0203 13.6814 25.301 13.1444C26.4518 12.6611 26.4763 12.4212 26.4816 12.0018C26.4875 11.6489 26.3265 11.3458 25.7528 11.4943C25.2261 11.6288 25.0863 12.0172 25.0585 12.3264C25.0488 12.435 25.0453 12.5441 25.0479 12.6531L23.4334 13.0395C23.4225 12.7131 23.46 12.3868 23.5447 12.0717C23.803 11.1905 24.5696 10.5977 25.8906 10.2879C27.6078 9.88463 28.1809 10.6508 28.1836 11.8405V14.6573C28.1836 16.0197 28.4327 16.2186 28.4327 16.2186L26.8473 16.5997C26.7596 16.4137 26.6883 16.2203 26.6339 16.0217C26.6339 16.0217 26.2875 16.9082 25.091 17.1945C23.8322 17.4943 23.1697 16.7052 23.1697 15.6211L23.1684 15.6204ZM26.4723 13.6095C26.2049 13.7996 25.9227 13.967 25.6283 14.1102C25.0982 14.373 24.8604 14.6956 24.8604 15.193C24.8604 15.6238 25.1254 15.9074 25.6024 15.7864C26.1159 15.656 26.4723 15.1701 26.4723 14.496V13.6095ZM1.8203 24.87C1.63937 24.8696 1.4619 24.8198 1.30655 24.7257C1.1512 24.6316 1.02372 24.4968 0.937539 24.3354C0.851355 24.174 0.809649 23.9921 0.816813 23.8087C0.823977 23.6253 0.879746 23.4472 0.978248 23.2933L0.988848 23.2791L1.00806 23.2744L3.37322 22.7078V24.5313L3.33612 24.54C2.79949 24.6711 2.15818 24.8196 2.02568 24.8472C1.95783 24.8626 1.8885 24.8703 1.81897 24.87H1.8203ZM1.8203 27.2029C1.5545 27.2029 1.29953 27.096 1.11127 26.9057C0.923013 26.7153 0.816809 26.457 0.815933 26.1874C0.814874 25.9905 0.871359 25.7978 0.978248 25.6335L0.988848 25.6154L1.00806 25.6114L3.37322 25.0448V26.8682L3.33612 26.8783C2.79949 27.0087 2.15818 27.1599 2.02568 27.1861C1.95759 27.1996 1.88836 27.2064 1.81897 27.2063L1.8203 27.2029ZM1.8203 29.5399C1.55386 29.5397 1.2984 29.4322 1.11006 29.241C0.921729 29.0498 0.815933 28.7906 0.815933 28.5203C0.814874 28.3234 0.871359 28.1307 0.978248 27.9664L0.988848 27.9476L3.37388 27.3777V29.2011L3.33678 29.2105C2.77034 29.349 2.14029 29.4935 2.02634 29.5197C1.9582 29.5329 1.889 29.5396 1.81964 29.5399" fill="#231F20"/>
<path d="M1.54217 22.6337L1.5415 12.4317L3.37467 11.9922V22.1935L1.54217 22.6337V22.6337Z" fill="#231F20"/>
<path d="M6.10964 21.765C6.10249 21.4654 5.98017 21.1806 5.7688 20.9713C5.55744 20.762 5.27377 20.6448 4.9784 20.6448C4.68303 20.6448 4.39937 20.762 4.188 20.9713C3.97664 21.1806 3.85431 21.4654 3.84717 21.765V31.3009C3.84857 32.1244 4.17161 32.9138 4.74555 33.4962C5.31949 34.0786 6.09753 34.4065 6.90929 34.4081C7.76525 34.4081 10.1105 34.404 10.1105 34.404V25.9899C10.111 25.7425 10.0511 25.4989 9.93636 25.2807C9.82159 25.0625 9.65543 24.8764 9.45267 24.7391L6.59857 22.7725V27.238C6.6003 27.2714 6.59529 27.3049 6.58387 27.3363C6.57244 27.3677 6.55483 27.3964 6.53212 27.4207C6.5094 27.445 6.48205 27.4643 6.45173 27.4775C6.42141 27.4907 6.38876 27.4975 6.35576 27.4975C6.32276 27.4975 6.29011 27.4907 6.25979 27.4775C6.22947 27.4643 6.20212 27.445 6.17941 27.4207C6.15669 27.3964 6.13908 27.3677 6.12766 27.3363C6.11623 27.3049 6.11123 27.2714 6.11295 27.238C6.11295 27.1903 6.10699 22.3544 6.10699 21.765H6.10964ZM7.63739 14.6507C7.29078 14.732 6.96553 14.8881 6.68382 15.1085C6.4021 15.3289 6.17055 15.6083 6.00496 15.9277V15.2132L4.35465 15.6098V20.1889C4.64412 20.073 4.95951 20.0405 5.26603 20.0949C5.57255 20.1494 5.8583 20.2887 6.09175 20.4974V17.5401C6.09175 16.8324 6.44023 16.2664 6.93579 16.1555C7.31011 16.0722 7.62149 16.208 7.62149 16.8821V21.1964L9.35925 20.7824V16.2194C9.35925 15.1124 8.94055 14.3375 7.63673 14.6507H7.63739ZM32.9022 8.12113C32.6895 8.12126 32.4816 8.05741 32.3047 7.93766C32.1278 7.81791 31.9899 7.64763 31.9084 7.44836C31.8269 7.24908 31.8055 7.02977 31.8468 6.81814C31.8882 6.60651 31.9905 6.41208 32.1408 6.25943C32.291 6.10678 32.4826 6.00277 32.6911 5.96055C32.8997 5.91832 33.1159 5.93979 33.3124 6.02223C33.5089 6.10467 33.677 6.24438 33.7952 6.4237C33.9135 6.60301 33.9767 6.81387 33.9768 7.02962C33.9763 7.31852 33.8629 7.59543 33.6614 7.79965C33.46 8.00388 33.187 8.11876 32.9022 8.11911V8.12113ZM32.9022 6.07522C32.7163 6.07522 32.5346 6.13114 32.38 6.23591C32.2254 6.34067 32.1049 6.48958 32.0337 6.66382C31.9626 6.83805 31.9439 7.02978 31.9801 7.21476C32.0163 7.39975 32.1058 7.56969 32.2372 7.70309C32.3686 7.8365 32.5361 7.92739 32.7184 7.96427C32.9007 8.00114 33.0897 7.98235 33.2615 7.91027C33.4333 7.83819 33.5802 7.71605 33.6836 7.5593C33.7869 7.40255 33.8422 7.21822 33.8423 7.02962C33.842 6.77672 33.7428 6.53427 33.5666 6.35539C33.3904 6.1765 33.1515 6.07575 32.9022 6.07522" fill="#231F20"/>
<path d="M32.5107 6.38379H32.9745C33.1593 6.38379 33.3058 6.47721 33.3058 6.72522C33.3058 6.89795 33.2302 7.03103 33.0871 7.05388C33.2196 7.06733 33.2859 7.13991 33.2918 7.32743C33.2918 7.41145 33.2958 7.5163 33.2998 7.59628C33.2997 7.61912 33.3054 7.6416 33.3163 7.66159C33.3272 7.68159 33.343 7.69843 33.3621 7.71054H33.1262C33.1025 7.67607 33.09 7.63495 33.0904 7.59292C33.0825 7.51294 33.0838 7.43833 33.0812 7.34155C33.0812 7.19637 33.0341 7.13252 32.8897 7.13252H32.7234V7.71054H32.5134L32.5107 6.38379ZM32.8877 6.97659C32.9162 6.97926 32.9449 6.97547 32.9718 6.96548C32.9987 6.95549 33.023 6.93955 33.0431 6.91883C33.0631 6.89811 33.0783 6.87312 33.0877 6.84568C33.097 6.81823 33.1002 6.78903 33.0971 6.76017C33.0971 6.61836 33.0374 6.54442 32.8983 6.54442H32.7234V6.97659H32.8877Z" fill="#231F20"/>
</svg>
